<svg width="392" height="124" viewBox="0 0 392 124" fill="none" xmlns="http://www.w3.org/2000/svg">
<path d="M222.942 86.4637H224.359V93.2274H222.092V88.7183H209.903V93.2274H207.352V86.7455L208.77 86.4637C209.336 86.1819 209.62 85.6183 209.903 85.3364C210.187 84.7728 210.47 84.2092 210.47 83.3637C210.754 82.5183 210.754 81.6728 210.754 80.2637C210.754 79.1364 210.754 77.7274 211.037 76.0364L211.321 67.0183H222.942C222.942 70.4001 222.942 73.5001 222.942 76.8819C222.942 79.9819 222.942 83.0819 222.942 86.4637ZM220.108 69.2728H213.588L213.305 76.8819C213.305 79.4183 213.021 81.391 213.021 82.8001C212.738 84.491 212.454 85.6183 211.888 86.4637H220.391V69.2728H220.108ZM228.611 79.7001C228.611 81.1092 228.611 82.2364 228.328 83.0819C228.044 83.9274 227.761 84.491 227.477 85.0546C227.194 85.6183 226.91 85.9001 226.343 86.1819C225.777 86.4637 225.493 86.7455 224.926 87.0274C225.21 87.3092 225.21 87.591 225.493 88.1546C225.493 88.4364 225.777 88.7183 226.06 89.2819C226.91 89.0001 227.761 88.7183 228.328 88.1546C228.895 87.8728 229.461 87.0274 230.028 86.4637C230.595 85.6183 230.879 84.7728 230.879 83.3637C231.162 82.2364 231.162 80.5455 231.162 78.5728V69.2728H237.398V88.7183H239.949V67.0183H228.611V79.7001ZM249.87 66.7364H256.389V88.4364H253.838V78.8546H251.287C251.004 78.8546 250.437 78.8546 250.153 78.8546C249.87 78.8546 249.303 79.1364 249.02 79.4183C248.736 79.7001 248.453 79.9819 248.169 80.5455C247.886 81.1092 247.602 81.6728 247.319 82.2364L245.902 88.4364H243.067L244.768 81.9546C245.051 81.1092 245.335 80.2637 245.618 79.7001C245.902 79.1364 246.468 78.5728 247.319 78.291C246.752 78.0092 246.185 77.7274 245.618 77.4455C245.335 77.1637 244.768 76.6001 244.484 76.3183C244.201 75.7546 243.917 75.4728 243.917 74.9092C243.917 74.3455 243.634 73.7819 243.634 73.2183C243.634 72.3728 243.634 71.2455 243.917 70.6819C244.201 69.8364 244.484 69.2728 245.051 68.7092C245.618 68.1455 246.185 67.5819 247.035 67.3001C247.886 67.0183 248.736 66.7364 249.87 66.7364ZM250.153 69.2728C248.736 69.2728 247.886 69.5546 247.319 70.4001C246.752 71.2455 246.468 72.091 246.468 73.2183C246.468 74.3455 246.752 75.191 247.602 75.7546C248.169 76.3183 249.303 76.6001 250.437 76.6001H253.838V69.2728H250.153ZM268.578 79.7001C268.578 81.1092 268.578 82.2364 268.294 83.0819C268.011 83.9274 267.727 84.491 267.444 85.0546C267.16 85.6183 266.877 85.9001 266.31 86.1819C265.743 86.4637 265.46 86.7455 264.893 87.0274C265.176 87.3092 265.176 87.591 265.46 88.1546C265.46 88.4364 265.743 88.7183 266.027 89.2819C266.877 89.0001 267.727 88.7183 268.294 88.1546C268.861 87.8728 269.428 87.0274 269.995 86.4637C270.562 85.6183 270.845 84.7728 270.845 83.3637C271.129 82.2364 271.129 80.5455 271.129 78.5728V69.2728H277.365V88.7183H279.916V67.0183H268.578V79.7001ZM301.174 70.6819C301.458 71.5274 301.458 72.091 301.458 72.9364V82.5183C301.458 83.6455 301.174 84.491 300.891 85.0546C300.608 85.9001 300.041 86.4637 299.757 87.0274C299.19 87.591 298.623 87.8728 297.773 88.1546C296.923 88.4364 296.072 88.4364 295.222 88.4364C294.088 88.4364 293.238 88.1546 292.387 87.8728C291.537 87.591 290.97 87.0274 290.403 86.4637C289.836 85.9001 289.553 85.0546 289.27 84.491C288.986 83.6455 288.986 82.8001 288.986 81.9546V78.5728H286.435V88.4364H283.884V66.7364H286.435V76.3183H288.986V72.6546C288.986 71.8092 288.986 71.2455 289.27 70.4001C289.553 69.5546 289.836 68.991 290.403 68.4274C290.97 67.8637 291.537 67.3001 292.387 67.0183C293.238 66.7364 294.088 66.4546 295.222 66.4546C296.356 66.4546 297.206 66.7364 298.057 67.0183C298.907 67.3001 299.474 67.8637 300.041 68.4274C300.608 69.2728 300.891 69.8364 301.174 70.6819ZM298.907 72.9364C298.907 72.6546 298.907 72.091 298.907 71.8092C298.907 71.2455 298.623 70.9637 298.34 70.6819C298.056 70.4001 297.773 69.8364 297.206 69.5546C296.639 69.2728 296.072 69.2728 295.505 69.2728C294.939 69.2728 294.372 69.2728 293.805 69.5546C293.238 69.8364 292.954 70.1183 292.671 70.4001C292.387 70.6819 292.104 71.2455 292.104 71.5273C292.104 72.091 291.821 72.3728 291.821 72.6546V81.9546C291.821 83.3637 292.104 84.2092 292.671 85.0546C293.238 85.9001 294.088 86.1819 295.505 86.1819C296.356 86.1819 297.206 85.9001 297.773 85.3364C298.34 84.7728 298.623 83.9274 298.623 82.5183V72.9364H298.907ZM319.032 86.4637H320.449V93.2274H317.898V88.7183H305.71V93.2274H303.159V86.7455L304.576 86.4637C305.143 86.1819 305.426 85.6183 305.71 85.3364C305.993 84.7728 306.277 84.2092 306.277 83.3637C306.56 82.5183 306.56 81.6728 306.56 80.2637C306.56 79.1364 306.56 77.7274 306.843 76.0364L307.127 67.0183H318.748C318.748 70.4001 318.748 73.5001 318.748 76.8819C319.032 79.9819 319.032 83.0819 319.032 86.4637ZM316.197 69.2728H309.678L309.395 76.8819C309.395 79.4183 309.111 81.391 309.111 82.8001C308.828 84.491 308.544 85.6183 307.977 86.4637H316.481V69.2728H316.197ZM323.284 88.7183H334.905V86.1819H325.835V78.8546H333.488V76.6001H325.835V69.2728H334.905V66.7364H323.284V88.7183ZM348.794 66.7364L343.692 76.8819L340.291 83.3637V66.7364H337.74V88.4364H340.291L345.676 78.0092L348.794 72.091V88.7183H351.345V67.0183H348.794V66.7364ZM340.858 64.2001C341.141 64.4819 341.708 65.0455 342.275 65.0455C342.842 65.3274 343.409 65.3274 344.259 65.3274C345.109 65.3274 345.676 65.3274 346.243 65.0455C346.81 64.7637 347.093 64.4819 347.66 64.2001C347.944 63.9183 348.227 63.3546 348.511 62.791C348.794 62.2274 348.794 61.9455 348.794 61.3819H346.81C346.81 61.6637 346.81 61.9455 346.81 61.9455C346.81 62.2273 346.527 62.5092 346.243 62.5092C345.96 62.791 345.96 62.791 345.676 63.0728C345.393 63.0728 345.109 63.3546 344.826 63.3546C344.542 63.3546 344.259 63.3546 343.975 63.0728C343.692 63.0728 343.409 62.791 343.409 62.5092C343.125 62.2274 343.125 62.2273 342.842 61.9455C342.842 61.6637 342.558 61.3819 342.558 61.3819H340.291C340.291 61.6637 340.291 62.2274 340.574 62.791C340.291 63.3546 340.574 63.9183 340.858 64.2001Z" fill="#4F606E"/>
<path d="M211.604 38.2727H215.289C216.422 38.2727 217.556 38.5545 218.123 38.8363C218.974 39.1182 219.54 39.6818 220.107 40.2454C220.674 40.8091 220.958 41.3727 221.241 42.2182C221.525 43.0636 221.525 43.9091 221.525 44.7545C221.525 47.0091 220.958 48.7 219.824 49.5454C218.69 50.6727 216.989 51.2363 215.005 51.2363H208.486V29.2545H219.54V31.7909H211.32V38.2727H211.604ZM211.604 48.7H215.289C216.706 48.7 217.556 48.4182 218.123 47.5727C218.69 46.7272 218.974 45.8818 218.974 44.7545C218.974 44.1909 218.974 43.6272 218.69 43.3454C218.69 42.7818 218.407 42.5 218.123 42.2182C217.84 41.9363 217.556 41.6545 216.989 41.3727C216.422 41.0909 215.856 41.0909 215.005 41.0909H211.604V48.7Z" fill="#4F606E"/>
<path d="M224.643 51.2363V29.2545H236.548V31.7909H227.477V39.1182H235.414V41.3727H227.477V48.7H236.548V51.2363H224.643Z" fill="#4F606E"/>
<path d="M243.917 51.5182C243.067 51.5182 242.216 51.5182 241.649 51.2364C240.799 50.9545 240.232 50.6727 239.665 50.3909C239.098 50.1091 238.531 49.5454 238.248 48.9818C237.965 48.4182 237.681 47.5727 237.398 47.0091L239.949 46.1636C240.232 47.2909 240.516 48.1364 241.366 48.7C242.216 49.2636 243.067 49.5454 243.917 49.5454C245.051 49.5454 245.901 49.2636 246.752 48.7C247.602 48.1364 247.885 47.0091 247.885 45.6C247.885 44.4727 247.602 43.3454 247.035 42.7818C246.468 41.9364 245.618 41.6545 244.484 41.6545H242.5V39.4H244.484C245.618 39.4 246.468 39.1182 247.035 38.2727C247.602 37.7091 247.885 36.5818 247.885 35.7364C247.885 34.6091 247.602 33.7636 247.035 33.2C246.468 32.6364 245.618 32.3545 244.484 32.3545C243.35 32.3545 242.5 32.6364 241.933 33.2C241.366 33.7636 240.799 34.6091 240.516 35.4545L237.965 34.6091C238.248 33.2 239.098 32.0727 240.232 31.2273C241.366 30.3818 242.783 29.8182 244.484 29.8182C246.468 29.8182 248.169 30.3818 249.019 31.2273C250.153 32.0727 250.72 33.4818 250.72 35.4545C250.72 35.7364 250.72 36.3 250.72 36.8636C250.72 37.4273 250.436 37.7091 250.153 38.2727C249.87 38.8364 249.586 39.1182 249.303 39.6818C249.019 39.9636 248.452 40.2454 248.169 40.5273C248.736 40.8091 249.303 41.0909 249.586 41.3727C249.87 41.6545 250.153 42.2182 250.436 42.7818C250.72 43.3454 250.72 43.6273 250.72 44.1909C250.72 44.7545 250.72 45.0364 250.72 45.6C250.72 47.5727 250.153 49.2636 249.019 50.3909C247.602 50.9545 246.185 51.5182 243.917 51.5182Z" fill="#4F606E"/>
<path d="M264.042 51.2363V31.5091H256.672V51.2363H254.121V29.2545H266.877V51.2363H264.042Z" fill="#4F606E"/>
<path d="M270.845 51.2363V29.2545H282.75V31.7909H273.679V39.1182H281.616V41.3727H273.679V48.7H282.75V51.2363H270.845Z" fill="#4F606E"/>
<path d="M285.301 51.2363V29.2545H287.852V38.8363H290.119C290.403 38.8363 290.686 38.8363 291.253 38.8363C291.537 38.8363 292.104 38.5545 292.387 38.2727C292.671 37.9909 292.954 37.7091 293.237 37.4272C293.521 36.8636 293.804 36.3 294.088 35.7363L295.788 29.2545H298.34L296.639 35.7363C296.355 36.8636 296.072 37.7091 295.505 38.5545C294.938 39.4 294.371 39.6818 293.804 39.9636C294.655 40.2454 295.505 40.8091 295.788 41.6545C296.355 42.5 296.639 43.3454 296.922 44.4727L298.906 51.5182H296.072L294.371 44.7545C294.088 43.9091 293.804 43.3454 293.521 43.0636C293.237 42.5 292.954 42.2182 292.671 41.9363C292.387 41.6545 292.104 41.6545 291.537 41.3727C291.253 41.3727 290.686 41.3727 290.403 41.3727H287.852V51.5182H285.301V51.2363Z" fill="#4F606E"/>
<path d="M312.229 51.2363L310.811 46.1636H303.725L302.308 51.2363H299.473L305.993 29.2545H308.26L314.78 51.2363H312.229ZM308.544 38.2727L307.41 33.4818L306.276 38.2727L304.575 43.9091H310.528L308.544 38.2727Z" fill="#4F606E"/>
<path d="M23.2 30.9C10.4 30.9 0 41.3 0 54.1V123.7C8.5 123.7 15.5 116.8 15.5 108.2V100.5C15.5 96.2 19 92.8 23.2 92.8H38.7C51.5 92.8 61.9 82.4 61.9 69.6V30.9H23.2ZM46.4 69.6C46.4 73.9 42.9 77.3 38.7 77.3H23.2C20.5 77.3 17.9 77.8 15.5 78.6V54.1C15.5 49.8 19 46.4 23.2 46.4H46.4V69.6ZM87.4 30.9V77.3C87.4 85.8 80.5 92.8 71.9 92.8V46.4C71.9 37.9 78.8 30.9 87.4 30.9ZM87.4 0V10.1C87.4 18.6 80.5 25.6 71.9 25.6V15.5C71.9 6.9 78.8 0 87.4 0ZM184.8 77.3C184.8 85.8 177.9 92.8 169.3 92.8V15.5C169.3 7 176.2 0 184.8 0V77.3ZM120.6 30.9C107.8 30.9 97.4 41.3 97.4 54.1V92.8V123.7C105.9 123.7 112.9 116.8 112.9 108.2V100.5C112.9 96.2 116.4 92.8 120.6 92.8H136.1C148.9 92.8 159.3 82.4 159.3 69.6V30.9H120.6ZM143.8 69.6C143.8 73.9 140.3 77.3 136.1 77.3H120.6C117.9 77.3 115.3 77.8 112.9 78.6V54.1C112.9 49.8 116.4 46.4 120.6 46.4H143.8V69.6Z" fill="#2575FC"/>
</svg>
